<?xml version="1.0" encoding="UTF-8"?>
<svg xmlns="http://www.w3.org/2000/svg" xmlns:xlink="http://www.w3.org/1999/xlink" width="375pt" height="374.999991pt" viewBox="0 0 375 374.999991" version="1.2">
<defs>
<clipPath id="clip1">
  <path d="M 42.421875 189 L 144 189 L 144 276 L 42.421875 276 Z M 42.421875 189 "/>
</clipPath>
<clipPath id="clip2">
  <path d="M 189 102 L 337.171875 102 L 337.171875 358 L 189 358 Z M 189 102 "/>
</clipPath>
<clipPath id="clip3">
  <path d="M 42.421875 17 L 337.171875 17 L 337.171875 188 L 42.421875 188 Z M 42.421875 17 "/>
</clipPath>
<clipPath id="clip4">
  <path d="M 42.421875 102 L 190 102 L 190 358 L 42.421875 358 Z M 42.421875 102 "/>
</clipPath>
</defs>
<g id="surface1">
<path style=" stroke:none;fill-rule:nonzero;fill:rgb(86.669922%,90.589905%,92.158508%);fill-opacity:1;" d="M 241.636719 211.617188 L 241.636719 272.71875 L 289.445312 300.367188 L 289.445312 183.976562 L 241.636719 211.617188 "/>
<path style=" stroke:none;fill-rule:nonzero;fill:rgb(14.898682%,43.139648%,58.81958%);fill-opacity:1;" d="M 184.683594 130.554688 L 237.535156 100 L 237.535156 44.722656 L 136.878906 102.90625 L 184.683594 130.554688 "/>
<g clip-path="url(#clip1)" clip-rule="nonzero">
<path style=" stroke:none;fill-rule:nonzero;fill:rgb(15.289307%,69.799805%,79.60968%);fill-opacity:1;" d="M 143.050781 220.484375 L 90.214844 189.925781 L 42.402344 217.554688 L 143.042969 275.761719 L 143.050781 220.484375 "/>
</g>
<path style=" stroke:none;fill-rule:nonzero;fill:rgb(100%,100%,100%);fill-opacity:1;" d="M 189.792969 257.660156 L 189.78125 257.644531 L 189.769531 302.789062 L 189.773438 302.789062 L 189.792969 302.78125 L 189.792969 257.660156 "/>
<g clip-path="url(#clip2)" clip-rule="nonzero">
<path style=" stroke:none;fill-rule:nonzero;fill:rgb(14.898682%,43.139648%,58.81958%);fill-opacity:1;" d="M 189.792969 187.554688 L 189.792969 357.984375 L 241.636719 328.011719 L 241.636719 211.617188 L 289.445312 183.976562 L 289.445312 300.367188 L 337.171875 272.777344 L 337.171875 102.355469 L 272.761719 139.585938 L 189.792969 187.554688 "/>
</g>
<g clip-path="url(#clip3)" clip-rule="nonzero">
<path style=" stroke:none;fill-rule:nonzero;fill:rgb(15.289307%,69.799805%,79.60968%);fill-opacity:1;" d="M 189.792969 187.550781 L 189.792969 187.554688 L 272.761719 139.585938 L 337.171875 102.355469 L 337.183594 102.347656 L 285.339844 72.363281 L 237.535156 100 L 184.683594 130.554688 L 136.878906 102.90625 L 237.535156 44.722656 L 189.804688 17.125 L 42.429688 102.320312 L 106.824219 139.574219 L 189.792969 187.550781 "/>
</g>
<g clip-path="url(#clip4)" clip-rule="nonzero">
<path style=" stroke:none;fill-rule:nonzero;fill:rgb(20.388794%,36.079407%,43.919373%);fill-opacity:1;" d="M 189.769531 302.789062 L 189.78125 257.644531 L 189.792969 187.554688 L 189.792969 187.550781 L 106.824219 139.574219 L 42.429688 102.320312 L 42.417969 102.316406 L 42.40625 162.269531 L 90.214844 189.925781 L 143.050781 220.484375 L 143.042969 275.761719 L 143.042969 275.769531 L 42.402344 217.554688 L 42.394531 272.746094 L 189.761719 357.980469 L 189.769531 302.789062 "/>
</g>
</g>
</svg>
